<svg width="30" height="27" viewBox="0 0 30 27" fill="none" xmlns="http://www.w3.org/2000/svg">
<path d="M2.34545 6.73313C2.34545 9.02506 3.12866 10.6788 4.67154 11.6499C5.93661 12.4476 7.40258 12.5673 8.16538 12.5673C8.35059 12.5673 8.4997 12.5581 8.60329 12.5519C8.60329 12.5519 8.36158 14.0922 9.52933 15.614H9.47597C7.4528 15.614 0.85437 16.0266 0.85437 21.3315C0.85437 26.7254 6.91444 27 8.13085 27C8.2266 27 8.2831 26.9969 8.2831 26.9969C8.29566 26.9969 8.38198 27 8.53109 27C9.31116 27 11.328 26.9049 13.2005 26.0136C15.6302 24.863 16.8623 22.8549 16.8623 20.0536C16.8623 17.3475 14.9851 15.7367 13.6149 14.5585C12.7783 13.839 12.0548 13.2193 12.0548 12.6164C12.0548 12.0027 12.5837 11.541 13.2508 10.9565C14.3322 10.013 15.3524 8.66761 15.3524 6.12409C15.3524 3.88892 15.0558 2.38705 13.2272 1.43438C13.4171 1.33926 14.092 1.27023 14.4248 1.2242C15.4152 1.09227 16.8639 0.941932 16.8639 0.151875V0H9.64548C9.57328 0.00306818 2.34545 0.263864 2.34545 6.73313ZM13.9979 20.5599C14.136 22.7168 12.2478 24.3077 9.41161 24.5086C6.53147 24.7157 4.16143 23.4486 4.02331 21.2932C3.95582 20.2561 4.42198 19.2436 5.3339 18.4352C6.25837 17.6175 7.52814 17.1112 8.90935 17.0115C9.07259 17.0023 9.23425 16.9931 9.39592 16.9931C12.0626 16.9947 13.8676 18.5257 13.9979 20.5599ZM12.1128 5.2558C12.8207 7.69193 11.7518 10.2355 10.0473 10.7064C9.85107 10.7599 9.64827 10.7867 9.44457 10.7862C7.88443 10.7862 6.33841 9.2429 5.76395 7.11511C5.44376 5.92466 5.47045 4.87841 5.83772 3.87511C6.19715 2.88563 6.84695 2.22136 7.66312 1.99585C7.85932 1.94216 8.06179 1.91455 8.2674 1.91455C10.1509 1.91455 11.3626 2.67852 12.1128 5.2558ZM24.3366 10.4318V5.82955H21.1974V10.4318H16.4888V13.5H21.1974V18.1023H24.3366V13.5H29.0452V10.4318H24.3366Z" fill="#5D5FEF"/>
</svg>
