<svg width="35" height="35" viewBox="0 0 35 35" fill="none" xmlns="http://www.w3.org/2000/svg">
<path d="M17.5 20.5625C15.8594 20.5625 14.4375 19.25 14.4375 17.5C14.4375 15.8594 15.75 14.4375 17.5 14.4375C19.1406 14.4375 20.5625 15.75 20.5625 17.5C20.5625 19.1406 19.1406 20.5625 17.5 20.5625Z" fill="#5D5FEF" fill-opacity="0.6"/>
<path fill-rule="evenodd" clip-rule="evenodd" d="M21.2188 10.0625H13.7812C12.9062 10.1719 12.4688 10.2812 12.1406 10.3906C11.7031 10.5 11.375 10.7187 11.0469 11.0469C10.7872 11.3065 10.6646 11.5662 10.5163 11.88C10.4772 11.9627 10.4362 12.0494 10.3906 12.1406C10.3737 12.1914 10.3542 12.2448 10.3332 12.302C10.2188 12.6146 10.0625 13.0416 10.0625 13.7812V21.2187C10.1719 22.0937 10.2812 22.5312 10.3906 22.8594C10.5 23.2969 10.7188 23.625 11.0469 23.9531C11.3065 24.2128 11.5662 24.3354 11.88 24.4837C11.9628 24.5228 12.0493 24.5637 12.1406 24.6094C12.1914 24.6263 12.2448 24.6458 12.302 24.6668C12.6146 24.7812 13.0416 24.9375 13.7812 24.9375H21.2188C22.0938 24.8281 22.5312 24.7187 22.8594 24.6094C23.2969 24.5 23.625 24.2812 23.9531 23.9531C24.2128 23.6935 24.3354 23.4338 24.4837 23.12C24.5228 23.0373 24.5637 22.9507 24.6094 22.8594C24.6263 22.8086 24.6458 22.7552 24.6668 22.698C24.7812 22.3854 24.9375 21.9584 24.9375 21.2187V13.7812C24.8281 12.9062 24.7188 12.4687 24.6094 12.1406C24.5 11.7031 24.2812 11.375 23.9531 11.0469C23.6935 10.7872 23.4338 10.6646 23.12 10.5163C23.0374 10.4772 22.9505 10.4362 22.8594 10.3906C22.8086 10.3737 22.7552 10.3542 22.698 10.3332C22.3854 10.2188 21.9584 10.0625 21.2188 10.0625ZM17.5 12.7969C14.875 12.7969 12.7969 14.875 12.7969 17.5C12.7969 20.125 14.875 22.2031 17.5 22.2031C20.125 22.2031 22.2031 20.125 22.2031 17.5C22.2031 14.875 20.125 12.7969 17.5 12.7969ZM23.4062 12.6875C23.4062 13.2916 22.9166 13.7812 22.3125 13.7812C21.7084 13.7812 21.2188 13.2916 21.2188 12.6875C21.2188 12.0834 21.7084 11.5937 22.3125 11.5937C22.9166 11.5937 23.4062 12.0834 23.4062 12.6875Z" fill="#5D5FEF" fill-opacity="0.6"/>
<path fill-rule="evenodd" clip-rule="evenodd" d="M0 5.46875C0 2.44844 2.44844 0 5.46875 0H29.5312C32.5516 0 35 2.44844 35 5.46875V29.5312C35 32.5516 32.5516 35 29.5312 35H5.46875C2.44844 35 0 32.5516 0 29.5312V5.46875ZM13.7812 8.42187H21.2188C22.2031 8.53125 22.8594 8.64062 23.4062 8.85937C24.0625 9.1875 24.5 9.40625 25.0469 9.95312C25.5938 10.5 25.9219 11.0469 26.1406 11.5937C26.3594 12.1406 26.5781 12.7969 26.5781 13.7812V21.2187C26.4688 22.2031 26.3594 22.8594 26.1406 23.4062C25.8125 24.0625 25.5938 24.5 25.0469 25.0469C24.5 25.5937 23.9531 25.9219 23.4062 26.1406C22.8594 26.3594 22.2031 26.5781 21.2188 26.5781H13.7812C12.7969 26.4687 12.1406 26.3594 11.5938 26.1406C10.9375 25.8125 10.5 25.5937 9.95312 25.0469C9.40625 24.5 9.07812 23.9531 8.85938 23.4062C8.64062 22.8594 8.42188 22.2031 8.42188 21.2187V13.7812C8.53125 12.7969 8.64062 12.1406 8.85938 11.5937C9.1875 10.9375 9.40625 10.5 9.95312 9.95312C10.5 9.40625 11.0469 9.07812 11.5938 8.85937C12.1406 8.64062 12.7969 8.42187 13.7812 8.42187Z" fill="#5D5FEF" fill-opacity="0.6"/>
</svg>
