<svg width="35" height="35" viewBox="0 0 35 35" fill="none" xmlns="http://www.w3.org/2000/svg">
<path fill-rule="evenodd" clip-rule="evenodd" d="M0 5.46875C0 2.44844 2.44844 0 5.46875 0H29.5313C32.5516 0 35 2.44844 35 5.46875V29.5313C35 32.5516 32.5516 35 29.5313 35H5.46875C2.44844 35 0 32.5516 0 29.5313V5.46875Z" fill="#5D5FEF" fill-opacity="0.6"/>
<path d="M23.8803 11.4237H11.1199C10.281 11.4237 9.60083 12.1038 9.60083 12.9428V22.0574C9.60083 22.8964 10.281 23.5765 11.1199 23.5765H23.8803C24.7193 23.5765 25.3994 22.8964 25.3994 22.0574V12.9428C25.3994 12.1038 24.7193 11.4237 23.8803 11.4237Z" stroke="#140C1F" stroke-width="1.5" stroke-linecap="round" stroke-linejoin="round"/>
<path d="M12.0312 13.8542L17.5 18.1077L22.9687 13.8542" stroke="#140C1F" stroke-width="1.5" stroke-linecap="round" stroke-linejoin="round"/>
</svg>
