<svg width="35" height="35" viewBox="0 0 35 35" fill="none" xmlns="http://www.w3.org/2000/svg">
<path fill-rule="evenodd" clip-rule="evenodd" d="M0 5.46875C0 2.44844 2.44844 0 5.46875 0H29.5312C32.5516 0 35 2.44844 35 5.46875V29.5312C35 32.5516 32.5516 35 29.5312 35H5.46875C2.44844 35 0 32.5516 0 29.5312V5.46875ZM8.75 17.5C8.75 12.6875 12.6875 8.75 17.5 8.75C22.3125 8.75 26.25 12.6875 26.1406 17.0625C26.1406 21.875 22.2031 25.8125 17.3906 25.8125C16.5156 25.8125 15.6406 25.7031 14.875 25.4844C15.2031 24.9375 15.5312 24.2812 15.75 23.625C15.8594 23.1875 16.4062 21.2188 16.4062 21.2188C16.7344 21.7656 17.6094 22.3125 18.5938 22.3125C21.4375 22.3125 23.2969 19.6875 23.2969 16.2969C23.2969 13.6719 21.1094 11.2656 17.7187 11.2656C13.5625 11.2656 11.4844 14.2188 11.4844 16.7344C11.4844 18.2656 12.0313 19.5781 13.2344 20.125C13.4531 20.2344 13.5625 20.125 13.6719 19.9062C13.7812 19.7969 13.8906 19.3594 13.8906 19.25C13.968 19.0953 13.9359 19.05 13.8719 18.9594C13.8453 18.9219 13.8133 18.8766 13.7813 18.8125C13.4531 18.375 13.2344 17.8281 13.2344 17.0625C13.2344 14.875 14.875 12.9063 17.5 12.9063C19.7969 12.9063 21.1094 14.3281 21.1094 16.2969C21.1094 18.9219 20.0156 21 18.375 21C17.3906 21 16.7344 20.2344 16.9531 19.3594C17.0444 18.9028 17.1929 18.4272 17.3349 17.9723C17.5331 17.3374 17.7187 16.7429 17.7187 16.2969C17.7187 15.5312 17.2813 14.9844 16.5156 14.9844C15.6406 14.9844 14.875 15.9687 14.875 17.2813C14.875 18.1562 15.2031 18.7031 15.2031 18.7031C15.2031 18.7031 14.3281 22.75 14.1094 23.5156C14 24.1718 14 24.828 14 25.4842C10.9375 24.1717 8.75 21.1094 8.75 17.5Z" fill="#5D5FEF" fill-opacity="0.6"/>
</svg>
