<svg width="34" height="27" viewBox="0 0 34 27" fill="none" xmlns="http://www.w3.org/2000/svg">
<path d="M30.371 6.82824C30.3928 7.11991 30.3928 7.40991 30.3928 7.69991C30.3928 16.5749 23.5918 26.8016 11.1626 26.8016C7.33337 26.8016 3.77595 25.6999 0.782349 23.7866C1.32603 23.8482 1.84957 23.8699 2.41507 23.8699C5.45732 23.8772 8.41343 22.8668 10.8069 21.0016C9.39637 20.9762 8.02904 20.514 6.8958 19.6795C5.76257 18.8449 4.92 17.6797 4.48576 16.3466C4.90359 16.4082 5.32309 16.4499 5.76274 16.4499C6.3685 16.4499 6.97763 16.3666 7.54312 16.2216C6.01236 15.9146 4.6359 15.0905 3.64778 13.8894C2.65967 12.6883 2.1209 11.1843 2.12309 9.63324V9.54991C3.02419 10.0482 4.06961 10.3599 5.1771 10.4016C4.2493 9.78922 3.48854 8.95828 2.96268 7.98289C2.43682 7.00751 2.16221 5.918 2.16337 4.81158C2.16337 3.56491 2.49729 2.42158 3.08293 1.42491C4.78132 3.49994 6.89961 5.19751 9.30058 6.40767C11.7016 7.61783 14.3317 8.3136 17.0206 8.44991C16.9166 7.94991 16.8528 7.43158 16.8528 6.91158C16.8524 6.02984 17.0269 5.15667 17.3664 4.34198C17.706 3.52728 18.2038 2.78703 18.8315 2.16356C19.4593 1.54008 20.2046 1.04559 21.0248 0.708373C21.8451 0.371152 22.7242 0.197805 23.6119 0.198243C25.5584 0.198243 27.3153 1.00824 28.5504 2.31824C30.0636 2.0276 31.5147 1.47895 32.8394 0.696576C32.335 2.24794 31.2784 3.56342 29.8676 4.39658C31.2097 4.24454 32.5213 3.894 33.759 3.35658C32.8346 4.69507 31.6891 5.86882 30.371 6.82824Z" fill="#5D5FEF"/>
</svg>
