<svg width="27" height="27" viewBox="0 0 27 27" fill="none" xmlns="http://www.w3.org/2000/svg">
<path d="M13.5 1L13.5014 8.46553C13.5017 9.55955 15.0064 9.85886 15.4252 8.8482L18.2836 1.9515L15.428 8.84929C15.0095 9.86011 16.2852 10.7125 17.0589 9.93903L22.3388 4.66117L17.0609 9.9411C16.2875 10.7148 17.1399 11.9905 18.1507 11.572L25.0485 8.71643L18.1518 11.5748C17.1411 11.9936 17.4405 13.4983 18.5345 13.4986L26 13.5L18.5345 13.5014C17.4405 13.5017 17.1411 15.0064 18.1518 15.4252L25.0485 18.2836L18.1507 15.428C17.1399 15.0095 16.2875 16.2852 17.061 17.0589L22.3388 22.3388L17.0589 17.061C16.2852 16.2875 15.0095 17.1399 15.428 18.1507L18.2836 25.0485L15.4252 18.1518C15.0064 17.1411 13.5017 17.4405 13.5014 18.5345L13.5 26L13.4986 18.5345C13.4983 17.4405 11.9936 17.1411 11.5748 18.1518L8.71643 25.0485L11.572 18.1507C11.9905 17.1399 10.7148 16.2875 9.9411 17.0609L4.66117 22.3388L9.93904 17.0589C10.7125 16.2852 9.86011 15.0095 8.84929 15.428L1.9515 18.2836L8.8482 15.4252C9.85886 15.0064 9.55955 13.5017 8.46553 13.5014L1 13.5L8.46553 13.4986C9.55954 13.4983 9.85886 11.9936 8.8482 11.5748L1.9515 8.71643L8.8493 11.572C9.86013 11.9905 10.7125 10.7148 9.93905 9.9411L4.66117 4.66117L9.9411 9.93905C10.7148 10.7125 11.9905 9.86013 11.572 8.8493L8.71643 1.9515L11.5748 8.8482C11.9936 9.85886 13.4983 9.55954 13.4986 8.46553L13.5 1Z" stroke="url(#paint0_linear_48_91)" stroke-opacity="0.2" stroke-width="2" stroke-linejoin="round"/>
<defs>
<linearGradient id="paint0_linear_48_91" x1="-20.0938" y1="13.5" x2="10.2328" y2="14.5497" gradientUnits="userSpaceOnUse">
<stop stop-color="#140C1F" stop-opacity="0"/>
<stop offset="0.995234" stop-color="#5D5FEF"/>
</linearGradient>
</defs>
</svg>
